<svg width="208" height="36" viewBox="0 0 208 36" fill="none" xmlns="http://www.w3.org/2000/svg">
<path d="M0.5 3C0.5 1.61929 1.61929 0.5 3 0.5H205C206.381 0.5 207.5 1.61929 207.5 3V33C207.5 34.3807 206.381 35.5 205 35.5H3C1.61929 35.5 0.5 34.3807 0.5 33V3Z" stroke="#2D9CDB"/>
<path d="M48.5527 13.4102H55.3848V22H53.6504V14.8516H50.2871V22H48.5527V13.4102ZM56.8027 17.7578C56.8027 16.8828 56.9336 16.1484 57.1953 15.5547C57.3906 15.1172 57.6562 14.7246 57.9922 14.377C58.332 14.0293 58.7031 13.7715 59.1055 13.6035C59.6406 13.377 60.2578 13.2637 60.957 13.2637C62.2227 13.2637 63.2344 13.6562 63.9922 14.4414C64.7539 15.2266 65.1348 16.3184 65.1348 17.7168C65.1348 19.1035 64.7578 20.1895 64.0039 20.9746C63.25 21.7559 62.2422 22.1465 60.9805 22.1465C59.7031 22.1465 58.6875 21.7578 57.9336 20.9805C57.1797 20.1992 56.8027 19.125 56.8027 17.7578ZM58.5898 17.6992C58.5898 18.6719 58.8145 19.4102 59.2637 19.9141C59.7129 20.4141 60.2832 20.6641 60.9746 20.6641C61.666 20.6641 62.2324 20.416 62.6738 19.9199C63.1191 19.4199 63.3418 18.6719 63.3418 17.6758C63.3418 16.6914 63.125 15.957 62.6914 15.4727C62.2617 14.9883 61.6895 14.7461 60.9746 14.7461C60.2598 14.7461 59.6836 14.9922 59.2461 15.4844C58.8086 15.9727 58.5898 16.7109 58.5898 17.6992ZM66.8047 13.4102H72.8223V22H71.0879V14.8633H68.5039V18.5312C68.5039 19.582 68.4688 20.3164 68.3984 20.7344C68.3281 21.1484 68.1562 21.4727 67.8828 21.707C67.6133 21.9375 67.1895 22.0527 66.6113 22.0527C66.4082 22.0527 66.0391 22.0332 65.5039 21.9941V20.6523L65.8906 20.6582C66.2539 20.6582 66.498 20.6094 66.623 20.5117C66.748 20.4141 66.8105 20.1738 66.8105 19.791L66.8047 18.3145V13.4102ZM73.7422 13.4102H75.6816L77.6855 17.8691L79.3965 13.4102H81.207L78.3066 19.9375C77.9902 20.6445 77.668 21.1836 77.3398 21.5547C77.0117 21.9219 76.5879 22.1055 76.0684 22.1055C75.5566 22.1055 75.1562 22.0723 74.8672 22.0059V20.7168C75.1133 20.7324 75.3359 20.7402 75.5352 20.7402C75.9375 20.7402 76.2246 20.668 76.3965 20.5234C76.5723 20.375 76.7402 20.0586 76.9004 19.5742L73.7422 13.4102ZM81.9395 13.4102H83.6738V15.4609C83.6738 16.125 83.6973 16.5664 83.7441 16.7852C83.7949 17 83.9414 17.1875 84.1836 17.3477C84.4258 17.5078 84.7812 17.5879 85.25 17.5879C85.6211 17.5879 85.9512 17.5488 86.2402 17.4707C86.5293 17.3887 86.7793 17.2695 86.9902 17.1133V13.4102H88.7246V22H86.9902V18.543C86.6387 18.6992 86.293 18.8184 85.9531 18.9004C85.6133 18.9785 85.2793 19.0176 84.9512 19.0176C84.0957 19.0176 83.3789 18.8164 82.8008 18.4141C82.2266 18.0078 81.9395 17.3066 81.9395 16.3105V13.4102ZM90.541 13.4102H92.1641V19.1289L95.6445 13.4102H97.373V22H95.75V16.3926L92.2754 22H90.541V13.4102ZM101.076 22V14.8633H98.5273V13.4102H105.354V14.8633H102.811V22H101.076ZM106.514 13.4102H108.248V16.8438H110.568C111.662 16.8438 112.453 17.0996 112.941 17.6113C113.434 18.123 113.68 18.7363 113.68 19.4512C113.68 20.0371 113.531 20.5352 113.234 20.9453C112.938 21.3555 112.598 21.6348 112.215 21.7832C111.836 21.9277 111.287 22 110.568 22H106.514V13.4102ZM108.248 20.5586H109.936C110.482 20.5586 110.861 20.5332 111.072 20.4824C111.283 20.4277 111.471 20.3066 111.635 20.1191C111.803 19.9316 111.887 19.7012 111.887 19.4277C111.887 19.0332 111.744 18.7441 111.459 18.5605C111.178 18.377 110.695 18.2852 110.012 18.2852H108.248V20.5586ZM118.479 13.4102H124.9V14.8516H120.213V16.8438H122.533C123.174 16.8438 123.705 16.9219 124.127 17.0781C124.549 17.2344 124.908 17.5234 125.205 17.9453C125.506 18.3672 125.656 18.8613 125.656 19.4277C125.656 20.0098 125.506 20.5078 125.205 20.9219C124.904 21.3359 124.561 21.6191 124.174 21.7715C123.791 21.9238 123.244 22 122.533 22H118.479V13.4102ZM120.213 20.5586H121.9C122.439 20.5586 122.818 20.5332 123.037 20.4824C123.256 20.4277 123.445 20.3066 123.605 20.1191C123.77 19.9316 123.852 19.7012 123.852 19.4277C123.852 19.0293 123.709 18.7402 123.424 18.5605C123.143 18.377 122.66 18.2852 121.977 18.2852H120.213V20.5586ZM126.717 17.7578C126.717 16.8828 126.848 16.1484 127.109 15.5547C127.305 15.1172 127.57 14.7246 127.906 14.377C128.246 14.0293 128.617 13.7715 129.02 13.6035C129.555 13.377 130.172 13.2637 130.871 13.2637C132.137 13.2637 133.148 13.6562 133.906 14.4414C134.668 15.2266 135.049 16.3184 135.049 17.7168C135.049 19.1035 134.672 20.1895 133.918 20.9746C133.164 21.7559 132.156 22.1465 130.895 22.1465C129.617 22.1465 128.602 21.7578 127.848 20.9805C127.094 20.1992 126.717 19.125 126.717 17.7578ZM128.504 17.6992C128.504 18.6719 128.729 19.4102 129.178 19.9141C129.627 20.4141 130.197 20.6641 130.889 20.6641C131.58 20.6641 132.146 20.416 132.588 19.9199C133.033 19.4199 133.256 18.6719 133.256 17.6758C133.256 16.6914 133.039 15.957 132.605 15.4727C132.176 14.9883 131.604 14.7461 130.889 14.7461C130.174 14.7461 129.598 14.9922 129.16 15.4844C128.723 15.9727 128.504 16.7109 128.504 17.6992ZM136.414 22V13.4102H138.148V16.791H141.547V13.4102H143.281V22H141.547V18.2441H138.148V22H136.414ZM144.207 13.4102H146.146L148.15 17.8691L149.861 13.4102H151.672L148.771 19.9375C148.455 20.6445 148.133 21.1836 147.805 21.5547C147.477 21.9219 147.053 22.1055 146.533 22.1055C146.021 22.1055 145.621 22.0723 145.332 22.0059V20.7168C145.578 20.7324 145.801 20.7402 146 20.7402C146.402 20.7402 146.689 20.668 146.861 20.5234C147.037 20.375 147.205 20.0586 147.365 19.5742L144.207 13.4102ZM158.041 18.8418L159.723 19.375C159.465 20.3125 159.035 21.0098 158.434 21.4668C157.836 21.9199 157.076 22.1465 156.154 22.1465C155.014 22.1465 154.076 21.7578 153.342 20.9805C152.607 20.1992 152.24 19.1328 152.24 17.7812C152.24 16.3516 152.609 15.2422 153.348 14.4531C154.086 13.6602 155.057 13.2637 156.26 13.2637C157.311 13.2637 158.164 13.5742 158.82 14.1953C159.211 14.5625 159.504 15.0898 159.699 15.7773L157.982 16.1875C157.881 15.7422 157.668 15.3906 157.344 15.1328C157.023 14.875 156.633 14.7461 156.172 14.7461C155.535 14.7461 155.018 14.9746 154.619 15.4316C154.225 15.8887 154.027 16.6289 154.027 17.6523C154.027 18.7383 154.223 19.5117 154.613 19.9727C155.004 20.4336 155.512 20.6641 156.137 20.6641C156.598 20.6641 156.994 20.5176 157.326 20.2246C157.658 19.9316 157.896 19.4707 158.041 18.8418Z" fill="#2D9CDB"/>
</svg>
