<svg width="50" height="57" viewBox="0 0 50 57" fill="none" xmlns="http://www.w3.org/2000/svg">
<path d="M45.2121 57H4.78788C4.49492 57.0005 4.21382 56.884 4.00666 56.6765C3.7995 56.4689 3.68333 56.1872 3.68378 55.8936V26.4923C3.68333 26.1987 3.7995 25.9171 4.00666 25.7095C4.21382 25.5019 4.49492 25.3855 4.78788 25.3859H45.2121C45.5051 25.3855 45.7862 25.5019 45.9934 25.7095C46.2005 25.9171 46.3167 26.1987 46.3162 26.4923V55.9004C46.3134 56.5092 45.8196 57.001 45.2121 57ZM5.89199 54.7804H44.1097V27.5987H5.89199V54.7804Z" fill="#219653"/>
<path d="M48.8959 27.5987H1.10411C0.811142 27.5991 0.530044 27.4827 0.322886 27.2751C0.115728 27.0675 -0.000451837 26.7859 1.32069e-06 26.4923V15.3942C-0.000451837 15.1007 0.115728 14.819 0.322886 14.6114C0.530044 14.4038 0.811142 14.2874 1.10411 14.2878H48.8959C49.1889 14.2874 49.4699 14.4038 49.6771 14.6114C49.8843 14.819 50.0004 15.1007 50 15.3942V26.4923C50.0004 26.7859 49.8843 27.0675 49.6771 27.2751C49.4699 27.4827 49.1889 27.5991 48.8959 27.5987ZM2.20992 25.3791H47.7918V16.4989H2.20821L2.20992 25.3791Z" fill="#219653"/>
<path d="M30.2948 57H19.9659C19.673 57.0004 19.3919 56.884 19.1847 56.6764C18.9776 56.4688 18.8614 56.1871 18.8618 55.8936V15.3942C18.8614 15.1007 18.9776 14.819 19.1847 14.6114C19.3919 14.4038 19.673 14.2874 19.9659 14.2878H30.2948C30.5878 14.2874 30.8688 14.4038 31.076 14.6114C31.2832 14.819 31.3993 15.1007 31.3989 15.3942V55.9004C31.3961 56.5092 30.9023 57.0009 30.2948 57ZM21.0683 54.7804H29.1907V16.4989H21.0683V54.7804Z" fill="#219653"/>
<path d="M25.1303 16.499C25.0565 16.4985 24.983 16.4911 24.9105 16.4768L17.9622 15.0613C14.81 14.4194 12.2031 12.6812 10.8059 10.2943C9.7179 8.47353 9.46936 6.27004 10.1244 4.25184L10.6441 2.6486C11.0786 1.3083 12.3479 0.355575 13.9751 0.159225C15.7063 -0.0439547 17.3471 0.657783 18.1513 1.96394L26.0641 14.8121C26.2739 15.1532 26.2832 15.5814 26.0884 15.9315C25.8936 16.2815 25.5252 16.4986 25.1252 16.499H25.1303ZM14.5664 2.33615C14.4593 2.33582 14.3523 2.34209 14.246 2.35493C13.6531 2.42664 12.9494 2.72031 12.75 3.32985L12.2304 4.93309C11.7648 6.35197 11.9435 7.90406 12.7194 9.17938C13.7928 11.0234 15.8647 12.3773 18.4018 12.8947L22.8523 13.803L16.2788 3.12667C15.9346 2.56665 15.2189 2.33615 14.5664 2.33615Z" fill="#219653"/>
<path d="M25.1304 16.4989C24.7304 16.4985 24.362 16.2815 24.1672 15.9314C23.9724 15.5814 23.9817 15.1532 24.1915 14.812L32.1026 1.96391C32.9068 0.657752 34.5459 -0.0422789 36.2788 0.159193C37.8992 0.353836 39.1754 1.30827 39.6098 2.64857L40.1295 4.25181C40.7845 6.27001 40.536 8.4735 39.448 10.2943C38.0576 12.6846 35.4524 14.4193 32.2917 15.0613L25.3434 16.4767C25.2732 16.4906 25.2019 16.4981 25.1304 16.4989ZM35.6944 2.33612C35.0418 2.33612 34.3313 2.56662 33.9803 3.12493L27.4067 13.803L31.859 12.8963C34.396 12.3841 36.4594 11.0182 37.5413 9.18105C38.3172 7.90574 38.4959 6.35364 38.0304 4.93477L37.5107 3.33153C37.313 2.72199 36.6076 2.42832 36.0147 2.35661C35.9084 2.34316 35.8014 2.33632 35.6944 2.33612Z" fill="#219653"/>
</svg>
