<svg width="56" height="57" viewBox="0 0 56 57" fill="none" xmlns="http://www.w3.org/2000/svg">
<path d="M27.9457 56.716C22.4186 56.716 17.0156 55.077 12.4199 52.0064C7.82429 48.9357 4.24242 44.5712 2.12727 39.4648C0.0121179 34.3584 -0.541309 28.7395 0.536972 23.3186C1.61525 17.8976 4.27681 12.9182 8.18507 9.00994C12.0933 5.10168 17.0728 2.44012 22.4937 1.36184C27.9146 0.283558 33.5335 0.836985 38.6399 2.95213C43.7463 5.06728 48.1108 8.64916 51.1815 13.2448C54.2522 17.8404 55.8911 23.2434 55.8911 28.7706C55.8826 36.1795 52.9356 43.2826 47.6967 48.5216C42.4578 53.7605 35.3547 56.7075 27.9457 56.716ZM27.9457 3.06052C22.8608 3.06049 17.89 4.56832 13.662 7.39334C9.43402 10.2184 6.1387 14.2337 4.19275 18.9315C2.2468 23.6294 1.73763 28.7988 2.72963 33.7861C3.72162 38.7733 6.17023 43.3544 9.76581 46.95C13.3614 50.5456 17.9424 52.9943 22.9297 53.9863C27.9169 54.9784 33.0863 54.4692 37.7842 52.5233C42.4821 50.5774 46.4974 47.2822 49.3225 43.0542C52.1476 38.8262 53.6554 33.8555 53.6555 28.7706C53.6478 21.9543 50.9366 15.4193 46.1168 10.5994C41.2969 5.77954 34.762 3.0683 27.9457 3.06052Z" fill="#219653"/>
<path d="M23.2854 30.582C23.0381 30.5803 22.7982 30.497 22.603 30.345C22.4078 30.193 22.2683 29.9808 22.2061 29.7414C22.0216 29.0614 21.6184 28.4611 21.0587 28.033C20.499 27.605 19.814 27.3731 19.1095 27.3731C18.4049 27.3731 17.7199 27.6051 17.1602 28.0331C16.6006 28.4612 16.1974 29.0615 16.0129 29.7415C15.9506 29.9809 15.8111 30.1931 15.616 30.3451C15.4208 30.497 15.1809 30.5803 14.9336 30.582H14.9335C14.7602 30.5811 14.5894 30.5401 14.4344 30.4623C14.2795 30.3845 14.1446 30.272 14.0404 30.1335C13.9361 29.995 13.8652 29.8343 13.8333 29.6639C13.8014 29.4935 13.8092 29.318 13.8563 29.1512C14.1703 27.9985 14.8547 26.9811 15.804 26.2558C16.7533 25.5305 17.9148 25.1375 19.1095 25.1375C20.3042 25.1375 21.4657 25.5305 22.415 26.2558C23.3643 26.9811 24.0487 27.9985 24.3627 29.1512C24.4097 29.318 24.4176 29.4935 24.3857 29.6639C24.3537 29.8343 24.2829 29.995 24.1786 30.1335C24.0743 30.272 23.9395 30.3845 23.7845 30.4623C23.6296 30.5401 23.4588 30.5811 23.2854 30.582Z" fill="#219653"/>
<path d="M40.9589 30.582C40.7115 30.5803 40.4716 30.497 40.2765 30.345C40.0813 30.193 39.9418 29.9808 39.8796 29.7414C39.6951 29.0614 39.2918 28.4611 38.7322 28.033C38.1725 27.605 37.4875 27.3731 36.7829 27.3731C36.0783 27.3731 35.3933 27.6051 34.8337 28.0331C34.274 28.4611 33.8708 29.0615 33.6863 29.7415C33.6241 29.9809 33.4846 30.1931 33.2894 30.345C33.0943 30.497 32.8544 30.5803 32.607 30.582H32.607C32.4336 30.5811 32.2628 30.5401 32.1079 30.4623C31.953 30.3845 31.8181 30.272 31.7138 30.1335C31.6096 29.995 31.5387 29.8343 31.5068 29.6639C31.4748 29.4935 31.4827 29.318 31.5298 29.1512C31.8438 27.9985 32.5281 26.9811 33.4775 26.2558C34.4268 25.5305 35.5883 25.1375 36.7829 25.1375C37.9776 25.1375 39.1391 25.5305 40.0884 26.2558C41.0377 26.9811 41.7221 27.9985 42.0361 29.1512C42.0832 29.318 42.0911 29.4935 42.0591 29.6639C42.0272 29.8343 41.9563 29.995 41.8521 30.1335C41.7478 30.272 41.6129 30.3845 41.458 30.4623C41.3031 30.5401 41.1323 30.5811 40.9589 30.582Z" fill="#219653"/>
<path d="M36.2818 39.7452V39.7454C36.2817 39.9702 36.2144 40.1898 36.0885 40.376C35.9626 40.5622 35.784 40.7065 35.5755 40.7904C30.6896 42.8111 25.2016 42.8111 20.3157 40.7904C20.1073 40.7065 19.9286 40.5622 19.8028 40.376C19.677 40.1898 19.6097 39.9702 19.6095 39.7455C19.6097 39.561 19.6554 39.3793 19.7424 39.2166C19.8295 39.0539 19.9554 38.9152 20.1088 38.8127C20.2623 38.7102 20.4386 38.6472 20.6223 38.6291C20.8059 38.611 20.9912 38.6384 21.1617 38.7089C23.3106 39.6076 25.6166 40.0703 27.9459 40.0703C30.2751 40.0702 32.5811 39.6073 34.73 38.7085C34.9005 38.638 35.0857 38.6106 35.2693 38.6287C35.453 38.6469 35.6293 38.71 35.7827 38.8125C35.9361 38.915 36.0619 39.0537 36.149 39.2164C36.236 39.379 36.2817 39.5606 36.2818 39.7452Z" fill="#219653"/>
<path d="M21.2452 15.8519C21.2449 15.6874 21.2108 15.5247 21.1451 15.374C21.0794 15.2232 20.9834 15.0875 20.8631 14.9753C20.742 14.8639 20.5996 14.7781 20.4444 14.7233C20.2892 14.6685 20.1246 14.6457 19.9603 14.6563C16.8087 14.8535 13.8538 16.256 11.7082 18.573C11.6009 18.6906 11.518 18.8283 11.4641 18.9781C11.4103 19.1279 11.3867 19.2869 11.3946 19.4459C11.4025 19.6049 11.4417 19.7607 11.5102 19.9045C11.5786 20.0482 11.6748 20.177 11.7932 20.2834C11.9116 20.3897 12.05 20.4716 12.2002 20.5243C12.3504 20.577 12.5096 20.5994 12.6685 20.5902C12.8274 20.5811 12.983 20.5406 13.1262 20.471C13.2694 20.4015 13.3974 20.3043 13.5029 20.1851C14.3408 19.2457 15.3582 18.4835 16.4953 17.9435C17.6323 17.4035 18.866 17.0965 20.1235 17.0406C20.4264 17.0217 20.7108 16.8884 20.919 16.6677C21.1273 16.447 21.2439 16.1553 21.2452 15.8519Z" fill="#219653"/>
<path d="M35.7675 17.0406C37.025 17.0965 38.2587 17.4035 39.3957 17.9435C40.5328 18.4835 41.5502 19.2457 42.3882 20.1851C42.4991 20.3123 42.6361 20.4143 42.7899 20.4841C42.9437 20.5539 43.1106 20.5898 43.2795 20.5895C43.5075 20.5887 43.7308 20.5251 43.9251 20.4058C44.0766 20.3139 44.2057 20.1895 44.3031 20.0416C44.4006 19.8937 44.4639 19.7259 44.4886 19.5505C44.5132 19.3751 44.4986 19.1964 44.4457 19.0274C44.3928 18.8583 44.303 18.7031 44.1828 18.573C42.0372 16.256 39.0824 14.8535 35.9307 14.6563C35.7665 14.646 35.6019 14.669 35.4468 14.7238C35.2917 14.7786 35.1492 14.8642 35.0279 14.9753C34.8565 15.1342 34.7355 15.3399 34.68 15.5669C34.6245 15.7939 34.6369 16.0322 34.7157 16.2522C34.7945 16.4722 34.9362 16.6643 35.1232 16.8044C35.3101 16.9446 35.5342 17.0267 35.7675 17.0407V17.0406Z" fill="#219653"/>
</svg>
