<svg width="56" height="57" viewBox="0 0 56 57" fill="none" xmlns="http://www.w3.org/2000/svg">
<path d="M27.9454 56.7154C22.4184 56.7155 17.0154 55.0765 12.4198 52.0059C7.82421 48.9352 4.24237 44.5707 2.12725 39.4644C0.0121173 34.3581 -0.541304 28.7392 0.536967 23.3183C1.61524 17.8975 4.27677 12.9181 8.18499 9.00986C12.0932 5.10164 17.0726 2.4401 22.4935 1.36183C27.9143 0.283564 33.5332 0.836985 38.6395 2.95211C43.7459 5.06724 48.1103 8.64908 51.181 13.2447C54.2516 17.8403 55.8906 23.2432 55.8906 28.7703C55.8821 36.1792 52.9351 43.2822 47.6962 48.5211C42.4574 53.76 35.3543 56.7069 27.9454 56.7154ZM27.9454 3.06049C22.8605 3.06046 17.8898 4.56828 13.6619 7.39328C9.43393 10.2183 6.13863 14.2336 4.19271 18.9314C2.24678 23.6292 1.73761 28.7985 2.7296 33.7857C3.72159 38.7729 6.17017 43.354 9.76571 46.9495C13.3613 50.5451 17.9423 52.9937 22.9294 53.9858C27.9166 54.9778 33.086 54.4687 37.7838 52.5228C42.4817 50.577 46.497 47.2817 49.322 43.0538C52.147 38.8259 53.6549 33.8552 53.6549 28.7703C53.6472 21.954 50.9361 15.4192 46.1163 10.5993C41.2965 5.77948 34.7617 3.06827 27.9454 3.06049Z" fill="#EB5757"/>
<path d="M32.2302 40.5373H23.6603C23.043 40.5373 22.5426 41.0377 22.5426 41.655V41.655C22.5426 42.2723 23.043 42.7727 23.6603 42.7727H32.2302C32.8475 42.7727 33.3479 42.2723 33.3479 41.655V41.655C33.3479 41.0377 32.8475 40.5373 32.2302 40.5373Z" fill="#EB5757"/>
<path d="M16.0121 26.3504C16.1966 27.0303 16.5998 27.6307 17.1595 28.0587C17.7191 28.4867 18.4041 28.7187 19.1087 28.7187C19.8132 28.7187 20.4982 28.4868 21.0579 28.0588C21.6176 27.6308 22.0208 27.0304 22.2053 26.3505C22.2421 26.2067 22.3072 26.0718 22.3967 25.9535C22.4862 25.8351 22.5984 25.7358 22.7266 25.6613C22.8549 25.5867 22.9968 25.5385 23.1439 25.5193C23.291 25.5001 23.4405 25.5104 23.5836 25.5496C23.7267 25.5887 23.8605 25.656 23.9774 25.7474C24.0942 25.8389 24.1917 25.9526 24.2641 26.0821C24.3366 26.2116 24.3825 26.3542 24.3993 26.5016C24.416 26.649 24.4033 26.7983 24.3618 26.9407C24.0478 28.0934 23.3634 29.1108 22.4141 29.8361C21.4649 30.5614 20.3034 30.9543 19.1087 30.9543C17.914 30.9543 16.7526 30.5614 15.8033 29.8361C14.854 29.1108 14.1696 28.0934 13.8556 26.9407C13.8085 26.7739 13.8007 26.5984 13.8326 26.428C13.8645 26.2576 13.9353 26.0969 14.0396 25.9584C14.1439 25.8199 14.2787 25.7073 14.4337 25.6295C14.5886 25.5517 14.7594 25.5108 14.9328 25.5099C15.1801 25.5116 15.42 25.5948 15.6152 25.7468C15.8103 25.8988 15.9499 26.111 16.0121 26.3504Z" fill="#EB5757"/>
<path d="M36.7825 30.9543C35.5882 30.9528 34.4273 30.5594 33.4782 29.8343C32.5291 29.1092 31.8443 28.0927 31.5289 26.9407C31.4818 26.7739 31.4739 26.5984 31.5058 26.428C31.5378 26.2576 31.6086 26.0969 31.7129 25.9584C31.8171 25.8199 31.952 25.7073 32.1069 25.6295C32.2618 25.5517 32.4327 25.5108 32.606 25.5099C32.8534 25.5116 33.0933 25.5948 33.2884 25.7468C33.4836 25.8988 33.6231 26.111 33.6853 26.3504C33.8699 27.0303 34.2731 27.6307 34.8327 28.0587C35.3924 28.4867 36.0773 28.7186 36.7819 28.7186C37.4865 28.7186 38.1714 28.4867 38.7311 28.0587C39.2908 27.6307 39.694 27.0304 39.8785 26.3505C39.9154 26.2067 39.9804 26.0718 40.0699 25.9535C40.1594 25.8351 40.2716 25.7358 40.3999 25.6613C40.5281 25.5867 40.67 25.5385 40.8171 25.5193C40.9642 25.5001 41.1137 25.5104 41.2568 25.5496C41.3999 25.5887 41.5337 25.656 41.6506 25.7474C41.7674 25.8389 41.8649 25.9526 41.9373 26.0821C42.0098 26.2116 42.0557 26.3542 42.0725 26.5016C42.0893 26.649 42.0765 26.7983 42.035 26.9407C41.7197 28.0925 41.0351 29.109 40.0862 29.834C39.1373 30.5591 37.9767 30.9527 36.7825 30.9543Z" fill="#EB5757"/>
<path d="M43.3369 20.0025C39.9155 19.7342 36.7204 18.1888 34.386 15.6732C34.276 15.5547 34.193 15.4139 34.1426 15.2603C34.0922 15.1067 34.0757 14.944 34.0942 14.7834C34.1127 14.6228 34.1657 14.4681 34.2497 14.33C34.3337 14.1918 34.4466 14.0735 34.5806 13.9832L34.5858 13.9796C34.8039 13.8306 35.068 13.7641 35.3306 13.792C35.5933 13.82 35.8375 13.9405 36.0193 14.1321C37.9809 16.2217 40.6426 17.5167 43.4974 17.7707C43.778 17.7925 44.0403 17.919 44.232 18.1251C44.4238 18.3312 44.531 18.6019 44.5325 18.8834C44.5331 19.0371 44.502 19.1893 44.4411 19.3304C44.3802 19.4715 44.2909 19.5986 44.1786 19.7036C44.0664 19.8086 43.9337 19.8894 43.7889 19.9408C43.6441 19.9923 43.4902 20.0133 43.3369 20.0025Z" fill="#EB5757"/>
<path d="M12.5537 20.0025C15.975 19.7342 19.1702 18.1888 21.5045 15.6732C21.6146 15.5547 21.6976 15.4139 21.748 15.2603C21.7984 15.1067 21.8149 14.944 21.7964 14.7834C21.7779 14.6228 21.7248 14.4681 21.6409 14.33C21.5569 14.1918 21.444 14.0735 21.31 13.9832L21.3047 13.9796C21.0866 13.8306 20.8226 13.7641 20.5599 13.792C20.2972 13.82 20.0531 13.9405 19.8713 14.1321C17.9096 16.2217 15.248 17.5167 12.3932 17.7707C12.1125 17.7925 11.8503 17.919 11.6586 18.1251C11.4668 18.3312 11.3595 18.6019 11.358 18.8834C11.3575 19.0371 11.3886 19.1893 11.4495 19.3304C11.5104 19.4715 11.5997 19.5986 11.7119 19.7036C11.8241 19.8086 11.9568 19.8894 12.1017 19.9408C12.2465 19.9923 12.4004 20.0133 12.5537 20.0025Z" fill="#EB5757"/>
</svg>
